<svg width="39" height="40" viewBox="0 0 39 40" fill="none" xmlns="http://www.w3.org/2000/svg">
<path d="M14.9583 26.6504H29.2079C29.7833 26.6504 30.3097 26.1858 30.3097 25.5204C30.3097 24.8675 29.7833 24.4029 29.2079 24.4029H15.2399C14.6523 24.4029 14.285 23.9886 14.1993 23.3482L14.0157 22.0424H29.3058C31.1788 22.0424 32.1704 20.8747 32.4398 18.9663L33.3579 12.6758C33.3824 12.5126 33.4069 12.2991 33.4069 12.161C33.4069 11.4202 32.9049 10.918 32.0603 10.918H12.4365L12.2528 9.56196C12.0937 8.4696 11.6652 7.91714 10.3064 7.91714H6.1074C5.49531 7.91714 4.95667 8.4696 4.95667 9.10995C4.95667 9.76285 5.49531 10.3153 6.1074 10.3153H9.93912L11.8366 23.5993C12.1059 25.4953 13.0853 26.6504 14.9583 26.6504ZM30.8605 13.1655L30.0893 18.7402C29.9914 19.3806 29.6608 19.7824 29.061 19.7824L13.6974 19.7949L12.7548 13.1655H30.8605ZM15.9621 32.9534C17.1496 32.9534 18.1045 31.9741 18.1045 30.7562C18.1045 29.5382 17.1496 28.5589 15.9621 28.5589C14.7747 28.5589 13.8198 29.5382 13.8198 30.7562C13.8198 31.9741 14.7747 32.9534 15.9621 32.9534ZM27.2737 32.9534C28.4611 32.9534 29.4038 31.9741 29.4038 30.7562C29.4038 29.5382 28.4611 28.5589 27.2737 28.5589C26.0862 28.5589 25.1191 29.5382 25.1191 30.7562C25.1191 31.9741 26.0862 32.9534 27.2737 32.9534Z" fill="black"/>
</svg>
