<svg width="56" height="56" viewBox="0 0 56 56" fill="none" xmlns="http://www.w3.org/2000/svg">
<g clip-path="url(#clip0_172_655)">
<path d="M55.6224 27.7677C55.6224 12.6201 43.3426 0.340332 28.195 0.340332C13.0474 0.340332 0.767578 12.6201 0.767578 27.7677C0.767578 40.6301 9.62333 51.4233 21.5696 54.3876V36.1495H15.9141V27.7677H21.5696V24.1561C21.5696 14.8209 25.7945 10.494 34.9597 10.494C36.6975 10.494 39.6958 10.8351 40.9224 11.1752V18.7726C40.2751 18.7046 39.1506 18.6706 37.754 18.6706C33.257 18.6706 31.5192 20.3744 31.5192 24.8034V27.7677H40.478L38.9388 36.1495H31.5192V54.9943C45.1001 53.3542 55.6235 41.7908 55.6235 27.7677H55.6224Z" fill="#0068A3"/>
<path d="M38.9377 36.1495L40.4769 27.7677H31.5181V24.8033C31.5181 20.3743 33.2558 18.6705 37.7528 18.6705C39.1494 18.6705 40.274 18.7046 40.9213 18.7726V11.1752C39.6947 10.834 36.6963 10.4939 34.9585 10.4939C25.7934 10.4939 21.5685 14.8208 21.5685 24.156V27.7677H15.913V36.1495H21.5685V54.3876C23.6903 54.9142 25.9097 55.1951 28.1939 55.1951C29.3184 55.1951 30.4275 55.1259 31.517 54.9943V36.1495H38.9366H38.9377Z" fill="white"/>
</g>
<defs>
<clipPath id="clip0_172_655">
<rect width="54.8548" height="54.8548" fill="white" transform="translate(0.767578 0.340332)"/>
</clipPath>
</defs>
</svg>
