<svg width="56" height="56" viewBox="0 0 56 56" fill="none" xmlns="http://www.w3.org/2000/svg">
<g clip-path="url(#clip0_172_654)">
<path d="M28.1038 5.2794C35.432 5.2794 36.2999 5.31155 39.1819 5.44011C41.8603 5.55796 43.3067 6.00795 44.2709 6.38293C45.5459 6.87576 46.4673 7.47574 47.4208 8.42927C48.385 9.39351 48.9743 10.3042 49.4671 11.5791C49.8421 12.5434 50.2921 14.0005 50.41 16.6682C50.5385 19.5609 50.5707 20.4288 50.5707 27.7463C50.5707 35.0746 50.5385 35.9424 50.41 38.8244C50.2921 41.5028 49.8421 42.9492 49.4671 43.9135C48.9743 45.1884 48.3743 46.1098 47.4208 47.0633C46.4566 48.0276 45.5459 48.6168 44.2709 49.1097C43.3067 49.4846 41.8496 49.9346 39.1819 50.0525C36.2891 50.181 35.4213 50.2132 28.1038 50.2132C20.7755 50.2132 19.9077 50.181 17.0257 50.0525C14.3472 49.9346 12.9009 49.4846 11.9366 49.1097C10.6617 48.6168 9.74029 48.0168 8.78676 47.0633C7.82251 46.0991 7.23325 45.1884 6.74042 43.9135C6.36543 42.9492 5.91545 41.4921 5.7976 38.8244C5.66903 35.9317 5.63689 35.0638 5.63689 27.7463C5.63689 20.418 5.66903 19.5502 5.7976 16.6682C5.91545 13.9897 6.36543 12.5434 6.74042 11.5791C7.23325 10.3042 7.83323 9.3828 8.78676 8.42927C9.751 7.46502 10.6617 6.87576 11.9366 6.38293C12.9009 6.00795 14.3579 5.55796 17.0257 5.44011C19.9077 5.31155 20.7755 5.2794 28.1038 5.2794ZM28.1038 0.340332C20.6577 0.340332 19.7256 0.372473 16.8007 0.501039C13.8865 0.629605 11.8831 1.10101 10.1474 1.77598C8.33678 2.4831 6.8047 3.4152 5.28334 4.94728C3.75126 6.46864 2.81916 8.00072 2.11204 9.80064C1.43707 11.547 0.965665 13.5398 0.837099 16.4539C0.708533 19.3895 0.676392 20.3216 0.676392 27.7677C0.676392 35.2138 0.708533 36.1459 0.837099 39.0708C0.965665 41.985 1.43707 43.9884 2.11204 45.7241C2.81916 47.5347 3.75126 49.0668 5.28334 50.5882C6.8047 52.1095 8.33678 53.0523 10.1367 53.7487C11.8831 54.4237 13.8758 54.8951 16.79 55.0237C19.7149 55.1523 20.647 55.1844 28.0931 55.1844C35.5392 55.1844 36.4713 55.1523 39.3962 55.0237C42.3103 54.8951 44.3138 54.4237 46.0494 53.7487C47.8494 53.0523 49.3814 52.1095 50.9028 50.5882C52.4242 49.0668 53.367 47.5347 54.0634 45.7348C54.7383 43.9885 55.2098 41.9957 55.3383 39.0815C55.4669 36.1566 55.499 35.2245 55.499 27.7784C55.499 20.3323 55.4669 19.4002 55.3383 16.4754C55.2098 13.5612 54.7383 11.5577 54.0634 9.82207C53.3884 8.00072 52.4563 6.46864 50.9242 4.94728C49.4029 3.42591 47.8708 2.4831 46.0709 1.7867C44.3245 1.11173 42.3317 0.640319 39.4176 0.511753C36.482 0.372474 35.5499 0.340332 28.1038 0.340332Z" fill="#000100"/>
<path d="M28.1038 13.679C20.3255 13.679 14.0151 19.9894 14.0151 27.7676C14.0151 35.5459 20.3255 41.8563 28.1038 41.8563C35.882 41.8563 42.1924 35.5459 42.1924 27.7676C42.1924 19.9894 35.882 13.679 28.1038 13.679ZM28.1038 36.9065C23.0575 36.9065 18.9649 32.8138 18.9649 27.7676C18.9649 22.7214 23.0575 18.6287 28.1038 18.6287C33.15 18.6287 37.2426 22.7214 37.2426 27.7676C37.2426 32.8138 33.15 36.9065 28.1038 36.9065Z" fill="#000100"/>
<path d="M46.0387 13.1219C46.0387 14.9433 44.5602 16.4111 42.7496 16.4111C40.9282 16.4111 39.4604 14.9326 39.4604 13.1219C39.4604 11.3006 40.939 9.83276 42.7496 9.83276C44.5602 9.83276 46.0387 11.3113 46.0387 13.1219Z" fill="#000100"/>
</g>
<defs>
<clipPath id="clip0_172_654">
<rect width="54.8548" height="54.8548" fill="white" transform="translate(0.676392 0.340332)"/>
</clipPath>
</defs>
</svg>
