<svg width="56" height="56" viewBox="0 0 56 56" fill="none" xmlns="http://www.w3.org/2000/svg">
<g clip-path="url(#clip0_172_669)">
<path d="M54.256 14.4776C53.9459 13.3106 53.3347 12.2455 52.4836 11.389C51.6325 10.5324 50.5714 9.9144 49.4064 9.5968C45.1177 8.4436 27.9756 8.4436 27.9756 8.4436C27.9756 8.4436 10.8335 8.4436 6.54484 9.5968C5.37985 9.9144 4.3187 10.5324 3.46761 11.389C2.61651 12.2455 2.00531 13.3106 1.69518 14.4776C0.548218 18.785 0.548218 27.7674 0.548218 27.7674C0.548218 27.7674 0.548218 36.7499 1.69518 41.0573C2.00531 42.2243 2.61651 43.2893 3.46761 44.1459C4.3187 45.0025 5.37985 45.6205 6.54484 45.9381C10.8335 47.0913 27.9756 47.0913 27.9756 47.0913C27.9756 47.0913 45.1177 47.0913 49.4064 45.9381C50.5714 45.6205 51.6325 45.0025 52.4836 44.1459C53.3347 43.2893 53.9459 42.2243 54.256 41.0573C55.403 36.7499 55.403 27.7674 55.403 27.7674C55.403 27.7674 55.403 18.785 54.256 14.4776Z" fill="#FF0100"/>
<path d="M22.3655 35.9241V19.6111L36.7025 27.7676L22.3655 35.9241Z" fill="#FEFEFE"/>
</g>
<defs>
<clipPath id="clip0_172_669">
<rect width="54.8548" height="54.8548" fill="white" transform="translate(0.493774 0.340088)"/>
</clipPath>
</defs>
</svg>
