<svg width="56" height="56" viewBox="0 0 56 56" fill="none" xmlns="http://www.w3.org/2000/svg">
<path d="M39.844 20.1417C43.3715 22.6723 47.6929 24.1612 52.3602 24.1612V15.1479C51.4769 15.1481 50.5959 15.0557 49.7317 14.8719V21.9667C45.0648 21.9667 40.744 20.4777 37.2156 17.9473V36.3408C37.2156 45.5421 29.7829 53.0007 20.6149 53.0007C17.194 53.0007 14.0145 51.9628 11.3733 50.1828C14.3878 53.2761 18.5918 55.195 23.2428 55.195C32.4114 55.195 39.8444 47.7364 39.8444 38.5347V20.1417H39.844ZM43.0866 11.0484C41.2838 9.07189 40.1002 6.5176 39.844 3.69372V2.53442H37.3532C37.9802 6.12357 40.1187 9.18993 43.0866 11.0484ZM17.1721 43.122C16.1649 41.7967 15.6206 40.1754 15.623 38.5084C15.623 34.3 19.0227 30.8879 23.2169 30.8879C23.9986 30.8877 24.7755 31.0078 25.5204 31.245V22.0303C24.6499 21.9106 23.7713 21.8597 22.8931 21.8784V29.0506C22.1476 28.8134 21.3703 28.6929 20.5884 28.6937C16.3942 28.6937 12.9947 32.1055 12.9947 36.3144C12.9947 39.2904 14.694 41.8669 17.1721 43.122Z" fill="#FF004F"/>
<path d="M37.2154 17.9472C40.7438 20.4775 45.0646 21.9665 49.7315 21.9665V14.8718C47.1265 14.3149 44.8203 12.9487 43.0864 11.0484C40.1184 9.18974 37.98 6.12338 37.353 2.53442H30.8102V38.5344C30.7954 42.7312 27.4016 46.1295 23.2164 46.1295C20.7501 46.1295 18.559 44.9496 17.1714 43.122C14.6935 41.8669 12.9942 39.2902 12.9942 36.3146C12.9942 32.1061 16.3937 28.6939 20.5879 28.6939C21.3915 28.6939 22.166 28.8195 22.8926 29.0508V21.8786C13.8855 22.0653 6.64172 29.4511 6.64172 38.5345C6.64172 43.0689 8.4456 47.1796 11.3733 50.183C14.0145 51.9628 17.1941 53.0009 20.6149 53.0009C29.7831 53.0009 37.2156 45.5419 37.2156 36.3408V17.9472H37.2154Z" fill="black"/>
<path d="M49.7316 14.8718V12.9535C47.3825 12.957 45.0795 12.2968 43.0864 11.0483C44.8508 12.9868 47.174 14.3234 49.7316 14.8718ZM37.3531 2.53449C37.2933 2.19148 37.2473 1.84621 37.2155 1.49963V0.340332H28.1816V36.3406C28.1672 40.5369 24.7736 43.9352 20.5879 43.9352C19.3591 43.9352 18.1989 43.6424 17.1714 43.1223C18.5591 44.9497 20.7501 46.1293 23.2164 46.1293C27.4013 46.1293 30.7957 42.7314 30.8103 38.5346V2.53449H37.3531ZM22.893 21.8786V19.8364C22.1381 19.7328 21.3771 19.6809 20.6151 19.6813C11.4461 19.6811 4.01349 27.1401 4.01349 36.3406C4.01349 42.1089 6.93464 47.1924 11.3736 50.1827C8.44584 47.1794 6.64196 43.0686 6.64196 38.5344C6.64196 29.4511 13.8856 22.0654 22.893 21.8786Z" fill="#00F2EA"/>
</svg>
