<svg width="111" height="26" viewBox="0 0 111 26" fill="none" xmlns="http://www.w3.org/2000/svg">
<path fill-rule="evenodd" clip-rule="evenodd" d="M110.494 6.82222C109.259 2.58308 106.262 0.900391 102.171 0.900391C98.8561 0.900391 94.6959 2.58308 94.6959 6.63518C94.6959 9.25307 96.7055 11.3105 99.9846 11.8406L103.088 12.3389C105.204 12.6816 105.803 13.3987 105.803 14.365C105.803 15.4558 104.499 16.079 102.559 16.079C100.021 16.079 98.4335 15.2688 98.1865 12.9932L93.7084 13.6168C94.4132 18.0112 98.7856 19.8195 102.735 19.8195C106.473 19.8195 110.458 17.8867 110.458 13.9909C110.458 11.3412 108.659 9.40939 105.309 8.84759L101.889 8.28715C99.9846 7.97553 99.3502 7.13384 99.3502 6.32356C99.3502 5.29483 100.584 4.64087 102.277 4.64087C104.428 4.64087 105.944 5.29483 106.015 7.44546L110.494 6.82222ZM10.9409 13.4915L15.5948 1.36765H21.0604L12.9497 19.3512H8.89491L0.78418 1.36799H6.24982L10.9409 13.4915ZM39.5397 6.5106C39.5397 7.94413 38.2702 8.94145 36.7889 8.94145C35.3079 8.94145 34.0388 7.94413 34.0388 6.5106C34.0388 5.07673 35.3079 4.07974 36.7889 4.07974C38.2702 4.07974 39.5401 5.07673 39.5401 6.5106H39.5397ZM40.3859 12.869C38.5518 14.9878 36.6124 16.4527 33.1919 16.4528C29.7017 16.4528 26.9857 14.5827 24.8701 11.8402C24.0235 10.718 22.7187 10.4688 21.7664 11.061C20.885 11.6221 20.6739 12.8065 21.4845 13.8352C24.4111 17.7935 28.4663 20.0994 33.1915 20.0994C37.5294 20.0994 40.9149 18.2297 43.5593 15.1128C44.5464 13.9598 44.5112 12.7754 43.5593 12.1208C42.6774 11.4969 41.3727 11.716 40.3859 12.869ZM52.5533 10.3129C52.5533 13.9909 54.9513 15.9234 57.6317 15.9234C60.1703 15.9234 62.7801 14.1155 62.7801 10.3129C62.7801 6.57238 60.1703 4.76511 57.6665 4.76511C54.9513 4.76511 52.5533 6.4792 52.5533 10.3129ZM52.5533 3.86164V1.39872H47.5815V25.585H52.5533V16.9825C54.2109 18.9775 56.3618 19.8195 58.7947 19.8195C63.3444 19.8195 67.7872 16.6402 67.7872 10.0951C67.7872 3.82991 63.1678 0.900728 59.218 0.900728C56.0795 0.900728 53.9289 2.17828 52.5533 3.86164ZM76.4281 10.3129C76.4281 13.9909 78.8258 15.9234 81.5061 15.9234C84.0447 15.9234 86.6542 14.1155 86.6542 10.3129C86.6542 6.57238 84.0447 4.76511 81.541 4.76511C78.8258 4.76511 76.4277 6.4792 76.4277 10.3129H76.4281ZM76.4281 3.86164V1.39872H76.4277H71.4559V25.585H76.4277V16.9825C78.0853 18.9775 80.2362 19.8195 82.6691 19.8195C87.2184 19.8195 91.6617 16.6402 91.6617 10.0951C91.6617 3.82991 87.0422 0.900728 83.0924 0.900728C79.9539 0.900728 77.8033 2.17828 76.4281 3.86164Z" fill="#FF5B24"/>
</svg>
